<svg width="115" height="115" viewBox="0 0 115 115" fill="none" xmlns="http://www.w3.org/2000/svg">
<path d="M57.5 0C25.7552 0 0 25.7552 0 57.5C0 89.2448 25.7552 115 57.5 115C89.2448 115 115 89.2448 115 57.5C115 25.7552 89.2448 0 57.5 0ZM57.5 102.212C32.793 102.212 12.7878 82.207 12.7878 57.5C12.7878 32.793 32.793 12.7878 57.5 12.7878C82.207 12.7878 102.212 32.8229 102.212 57.5C102.212 82.1771 82.207 102.212 57.5 102.212Z" fill="#CE1900"/>
<path d="M80.0807 43.9336L71.0663 34.9193L57.4999 48.4557L43.9335 34.9193L34.9192 43.9336L48.4557 57.5L34.9192 71.0664L43.9335 80.0807L57.4999 66.5442L71.0663 80.0807L80.0807 71.0664L66.5442 57.5L80.0807 43.9336Z" fill="#CE1900"/>
</svg>
