<svg width="120" height="120" viewBox="0 0 120 120" fill="none" xmlns="http://www.w3.org/2000/svg">
<g clip-path="url(#clip0)">
<path d="M13.9005 60.1144C13.9005 75.531 21.5598 89.1586 33.2803 97.3993C35.3458 98.8522 35.4556 101.869 33.4717 103.431L33.4158 103.475C32.1204 104.495 30.304 104.562 28.9545 103.615C15.2719 94.0054 6.32812 78.1036 6.32812 60.1144C6.32812 30.9357 30.4807 7.24823 59.6008 6.99921V14.5734C34.66 14.8206 13.9005 35.116 13.9005 60.1144Z" fill="#001E87"/>
<path d="M60.9916 0.226138L74.9076 9.74488C75.6528 10.2548 75.6528 11.3544 74.9076 11.8643L60.9916 21.3831C60.1392 21.9663 58.9829 21.3556 58.9829 20.3238V1.28632C58.9829 0.253604 60.1392 -0.356137 60.9916 0.226138Z" fill="#001E87"/>
<path d="M106.027 59.8856C106.027 44.469 98.367 30.8414 86.6464 22.6007C84.581 21.1478 84.4711 18.1311 86.4551 16.5692L86.5109 16.5253C87.8064 15.5054 89.6228 15.4376 90.9723 16.3852C104.656 25.9946 113.599 41.8964 113.599 59.8856C113.599 89.0643 89.4873 112.752 60.3662 113.001V105.427C85.307 105.179 106.027 84.8849 106.027 59.8856Z" fill="#001E87"/>
<path d="M58.9361 119.774L45.0201 110.255C44.2749 109.745 44.2749 108.646 45.0201 108.136L58.9361 98.6168C59.7876 98.0336 60.9448 98.6443 60.9448 99.6761V118.714C60.9448 119.746 59.7876 120.357 58.9361 119.774Z" fill="#001E87"/>
<path d="M83.585 54.0985L60.7902 73.0023L55.0435 77.7685C53.6894 78.89 51.9755 79.4989 50.2324 79.4989C49.9422 79.4989 49.6519 79.4824 49.359 79.4485C47.3256 79.2096 45.4542 78.1311 44.2265 76.4914L35.3624 64.6756C33.361 62.0068 33.9021 58.2184 36.5718 56.2133C39.2433 54.212 43.0318 54.7531 45.034 57.4228L51.0179 65.4016L51.0664 65.3622L75.8699 44.7921C78.4398 42.6626 82.2502 43.0179 84.3806 45.5877C86.5111 48.1576 86.1549 51.968 83.585 54.0985Z" fill="#001E87"/>
<path d="M83.585 54.0985L60.7902 73.0023C57.0622 71.141 53.7837 68.5684 51.0664 65.3622L75.8699 44.7921C78.4398 42.6626 82.2502 43.0179 84.3806 45.5877C86.5111 48.1576 86.1549 51.968 83.585 54.0985Z" fill="#001E87"/>
</g>
<defs>
<clipPath id="clip0">
<rect width="120" height="120" fill="white"/>
</clipPath>
</defs>
</svg>
