<svg width="103" height="103" viewBox="0 0 103 103" fill="none" xmlns="http://www.w3.org/2000/svg">
<g clip-path="url(#clip0)">
<path d="M40.6067 77.9212C40.6067 61.2081 54.2024 47.6125 70.9148 47.6125C72.1528 47.6125 73.3669 47.7098 74.5673 47.8544V18.8742C74.5673 18.8726 74.5673 18.8726 74.5673 18.8706C74.5673 18.869 74.5673 18.869 74.5673 18.867V17.0824H72.6197L72.6233 17.1075H16.2649C12.5245 17.1075 10.7768 13.9983 10.6233 10.7762C10.6164 10.623 10.5933 10.4715 10.5933 10.3164C10.5933 6.93744 12.3466 3.52685 16.2649 3.52685H71.0405C71.1042 3.52685 71.1561 3.49681 71.2178 3.49158C72.1067 3.39753 72.8056 2.67518 72.8056 1.76342C72.8056 0.788643 72.0169 0 71.0421 0H16.2649C10.9358 0 7.06641 4.33966 7.06641 10.318C7.06641 10.4911 7.08077 10.6563 7.08796 10.8261V93.4961C7.08796 98.7449 11.343 103 16.5928 103H53.9176C45.8901 97.5396 40.6067 88.3384 40.6067 77.9212Z" fill="#CF8412"/>
<path d="M74.5675 53.2006C73.3706 53.0232 72.1601 52.9027 70.9149 52.9027C57.121 52.9027 45.8955 64.1256 45.8955 77.9212C45.8955 91.7187 57.1174 102.942 70.9149 102.942C72.1585 102.942 73.3706 102.819 74.5675 102.644C86.6326 100.867 95.9337 90.4751 95.9337 77.9212C95.9337 65.3708 86.6342 54.9764 74.5675 53.2006ZM86.9441 81.755H74.7517V93.9474H74.5691H67.0847V81.755H54.8906V74.088H67.0847V61.8956H74.5691H74.7517V74.088H86.9441V81.755Z" fill="#CF8412"/>
</g>
<defs>
<clipPath id="clip0">
<rect width="103" height="103" fill="white"/>
</clipPath>
</defs>
</svg>
