<svg width="101" height="101" viewBox="0 0 101 101" fill="none" xmlns="http://www.w3.org/2000/svg">
<g clip-path="url(#clip0)">
<path d="M64.1772 9.46875V3.15625H36.823V9.46875C36.823 11.7917 38.7083 13.6771 41.0313 13.6771H59.9688C62.2918 13.6771 64.1772 11.7917 64.1772 9.46875Z" fill="#1ED688"/>
<path d="M50.5 65.2334C48.7578 65.2334 47.3438 63.8194 47.3438 62.0771V32.6146C47.3438 30.8723 48.7578 29.4583 50.5 29.4583C52.2422 29.4583 53.6562 30.8723 53.6562 32.6146V62.0771C53.6562 63.8194 52.2422 65.2334 50.5 65.2334Z" fill="#005631"/>
<path d="M50.4999 67.3333C49.6919 67.3333 48.8839 67.0261 48.2695 66.4075L38.8008 56.9387C37.5677 55.7057 37.5677 53.7067 38.8008 52.4737C40.0338 51.2407 42.0328 51.2407 43.2658 52.4737L50.5041 59.712L57.7425 52.4737C58.9755 51.2407 60.9745 51.2407 62.2075 52.4737C63.4405 53.7067 63.4405 55.7057 62.2075 56.9387L52.7388 66.4075C52.1159 67.0261 51.3079 67.3333 50.4999 67.3333Z" fill="#005631"/>
<path d="M64.177 79.9583H36.8228C32.7618 79.9583 29.4583 76.6548 29.4583 72.5937V66.2812C29.4583 64.539 30.8723 63.125 32.6145 63.125C34.3568 63.125 35.7708 64.539 35.7708 66.2812V72.5937C35.7708 73.1745 36.2421 73.6458 36.8228 73.6458H64.177C64.7578 73.6458 65.2291 73.1745 65.2291 72.5937V66.2812C65.2291 64.539 66.6431 63.125 68.3853 63.125C70.1276 63.125 71.5416 64.539 71.5416 66.2812V72.5937C71.5416 76.6548 68.238 79.9583 64.177 79.9583Z" fill="#005631"/>
<path d="M59.9688 16.8333H41.0313C36.9702 16.8333 33.6667 13.5298 33.6667 9.46875C33.6667 7.7265 32.2527 6.3125 30.5104 6.3125H28.4062C26.664 6.3125 25.25 4.8985 25.25 3.15625C25.25 1.414 26.664 0 28.4062 0H30.5104C35.733 0 39.9792 4.24621 39.9792 9.46875C39.9792 10.0495 40.4505 10.5208 41.0313 10.5208H59.9688C60.5495 10.5208 61.0208 10.0495 61.0208 9.46875C61.0208 4.24621 65.267 0 70.4896 0H72.5938C74.336 0 75.75 1.414 75.75 3.15625C75.75 4.8985 74.336 6.3125 72.5938 6.3125H70.4896C68.7473 6.3125 67.3333 7.7265 67.3333 9.46875C67.3333 13.5298 64.0298 16.8333 59.9688 16.8333Z" fill="#005631"/>
<path d="M72.5937 101H28.4062C22.0221 101 16.8333 95.8111 16.8333 89.4271V11.5729C16.8333 5.18888 22.0221 0 28.4062 0H72.5937C78.9777 0 84.1666 5.18888 84.1666 11.5729V89.4271C84.1666 95.8111 78.9777 101 72.5937 101ZM28.4062 6.3125C25.5066 6.3125 23.1458 8.67338 23.1458 11.5729V89.4271C23.1458 92.3266 25.5066 94.6875 28.4062 94.6875H72.5937C75.4932 94.6875 77.8541 92.3266 77.8541 89.4271V11.5729C77.8541 8.67338 75.4932 6.3125 72.5937 6.3125H28.4062Z" fill="#005631"/>
</g>
<defs>
<clipPath id="clip0">
<rect width="101" height="101" fill="white"/>
</clipPath>
</defs>
</svg>
